<?xml version="1.0" encoding="utf-8"?>
<svg width="24" height="24" xmlns="http://www.w3.org/2000/svg">
  <ellipse style="fill: rgb(199, 118, 18);" cx="11.967" cy="11.837" rx="8.241" ry="8.469"/>
  <path d="M 12 2 C 6.486 2 2 6.486 2 12 C 2 17.514 6.486 22 12 22 C 17.514 22 22 17.514 22 12 C 22 6.486 17.514 2 12 2 Z M 12 20 C 7.584 19.994 4.006 16.416 4 12 C 4.006 7.584 7.584 4.006 12 4 C 16.416 4.006 19.994 7.584 20 12 C 19.994 16.416 16.416 19.994 12 20 Z M 13.293 6.293 L 7.586 12 L 13.293 17.707 L 14.707 16.293 L 10.414 12 L 14.707 7.707 L 13.293 6.293 L 13.293 6.293 Z" style="fill: rgb(255, 255, 255);"/>
</svg>