<svg xmlns="http://www.w3.org/2000/svg" xmlns:xlink="http://www.w3.org/1999/xlink" width="767.244" height="763.465" viewBox="0 0 203 202" xmlns:v="https://vecta.io/nano"><style><![CDATA[.B{fill:#dcab8b}.C{fill:#d7a88c}.D{fill:#e1b288}.E{fill:#e1b088}.F{fill:#ddad89}.G{fill:#e4b388}.H{fill:#e5b585}.I{fill:#d4a48d}.J{fill:#e8b586}]]></style><ellipse cx="101.608" cy="100.348" rx="98.205" ry="98.51" fill="#f1c899" paint-order="normal"/><path d="M54.95 162.288l.066 23.83-14.642-8.803zm30.537-30.728v60.53l-30.17-30.265z" paint-order="normal" class="F"/><path d="M85.8 161.993l-.052 30.095 30.17-30.265-30.17-30.265z" paint-order="normal" class="B"/><path d="M146.482 131.528v56.767l-.813 2.34-29.357-28.84z" paint-order="normal" class="C"/><path d="M146.9 161.625l-.052-30.095 30.17 30.265c-2.033 5.692-29.967 26.808-29.967 26.808z" paint-order="normal" class="I"/><path d="M177.016 100.91v60.53l-30.17-30.265z" paint-order="normal" class="C"/><path d="M115.92 39.496v60.53L85.75 69.76z" paint-order="normal" class="D"/><use xlink:href="#B" paint-order="normal" class="E"/><path d="M85.482 70.246v60.53l-30.17-30.265z" paint-order="normal" class="D"/><use xlink:href="#B" x="-30.508" y="30.707" paint-order="normal" class="E"/><path d="M146.476 70.238v60.53l-30.17-30.265z" paint-order="normal" class="F"/><use xlink:href="#B" x="30.517" y="30.688" paint-order="normal" class="B"/><path d="M115.936 100.94v60.53l-30.17-30.265z" paint-order="normal" class="F"/><use xlink:href="#B" x="0.026" y="61.388" paint-order="normal" class="B"/><path d="M143.6 11.606l3.05 3.096-.203 54.587-30.17-30.265z" paint-order="normal" class="D"/><path d="M146.802 38.858l.15-25.42 29.967 25.59-30.17 30.265z" paint-order="normal" class="E"/><path d="M176.9 39.454v60.53L146.74 69.72z" paint-order="normal" class="F"/><path d="M177.338 69.54l-.052-30.095c6.912 6.506 20.865 39.253 20.865 39.253l-20.865 21.276z" paint-order="normal" class="B"/><path d="M116.325 8.123l.332-5.523 26.337 9.143-26.72 26.815z" paint-order="normal" class="G"/><path d="M54.843 13.97v24.6l-14.65-14.94zM24.406 39.544h0v29.784l-9.732-10.146z" paint-order="normal" fill="#eab885"/><path d="M24.752 38.898l15.442-14.684L54.87 39.068 24.7 69.332z" paint-order="normal" class="J"/><path d="M85.4 8.79v60.53l-30.17-30.265z" paint-order="normal" class="H"/><use xlink:href="#B" x="-30.56" y="-30.758" paint-order="normal" class="G"/><path d="M54.86 39.494v60.53L24.69 69.758z" paint-order="normal" class="H"/><use xlink:href="#B" x="-61.051" y="-0.058" paint-order="normal" class="G"/><path d="M24.38 70.16v60.53L5.81 112.283 3.114 91.33z" paint-order="normal" class="H"/><g class="G"><use xlink:href="#B" x="-91.538" y="30.662" paint-order="normal"/><path d="M7.846 130.076L2.78 109.854l21.628 21.323-13.272 12.568z" paint-order="normal"/></g><path d="M54.937 100.9v60.53l-30.17-30.265z" paint-order="normal" class="D"/><use xlink:href="#B" x="-61.021" y="61.352" paint-order="normal" class="E"/><path d="M24.398 131.604v30.745L12.11 143.58z" paint-order="normal" class="D"/><path d="M24.826 161.69l-.052-30.095 30.17 30.265L40.25 176.78z" paint-order="normal" class="E"/><path d="M9.83 67.82l2.408-10.65 12.168 12.604L5.265 88.71z" paint-order="normal" class="J"/><path d="M115.967 162.2l.203 35.827-22.77 1.73-7.604-7.292z" paint-order="normal" class="C"/><path d="M116.317 192.215l-.052-30.095 28.34 28.028-27.934 8.918zm61.09-61.295l-.052-30.095 21.43 21.726c0 3.456-21.43 38.803-21.43 38.803z" paint-order="normal" class="I"/><path d="M198.18 79.276v42.03l-20.82-20.913z" paint-order="normal" class="C"/><path d="M91.172 3.105l24.87.413v35.247L85.87 8.5z" paint-order="normal" class="H"/><path d="M85.864 4.14l4.817-.98-5.013 5.108zM55.418 14.544l25.887-9.808 4.038 3.784-30.17 30.265z" paint-order="normal" class="J"/><path d="M84.957 3.717l.43 4.483-4.01-3.87z" fill="#eab885" paint-order="normal"/><path d="M55.42 187.744l24.63 9.525 5.368-4.852-30.17-30.265z" paint-order="normal" class="B"/><path d="M85.764 192.585l6.79 6.885-6.385-.84-.407-6.045z" paint-order="normal" class="I"/><path d="M85.518 192.632v6.248l-4.352-2.006z" paint-order="normal" class="C"/><path d="M48.775 148.935c0-.608.505-.865 1.73-.882.95-.01 4.243-.253 7.316-.533s12.967-.725 21.986-.988c15.805-.46 16.445-.52 17.64-1.646 2.018-1.9 2.408-4.92 2.408-18.628 0-16.854-.837-21.058-5.404-27.148-2.193-2.924-1.437-3.734.893-.957 1.64 1.956 2.38 3.267 4.665 8.283.84 1.842.847 1.8.796-3.47-.157-16.453.16-32.782.643-33.08.353-.22.55 4.54.58 13.977l.046 14.31 1.07-4.537c.588-2.495 1.405-5.294 1.816-6.22s.747-1.815.747-1.978.6-1.18 1.33-2.262 1.33-1.605 1.33-1.163-.48 1.414-1.064 2.16-1.064 1.523-1.064 1.726-.346 1.126-.77 2.05c-1.27 2.778-2.857 11.768-2.917 16.524-.04 3.226.648 3.728 1.215.886.378-1.898 4.846-9.057 5.652-9.057.97 0 .578 1.144-1.26 3.665-4.007 5.493-5.113 11.05-5.113 25.677 0 13.46.79 18.133 3.333 19.726.882.552 5.078.843 16.878 1.17 8.637.24 18.458.68 21.823.976s6.777.544 7.582.55c.992.006 1.463.288 1.463.876 0 .686-.346.798-1.656.535-10.648-2.136-94-2.126-102.496.01-.87.22-1.198.067-1.198-.557zm40.97-27.223C78.93 118.67 69.71 111.397 63.7 101.175c-1.895-3.227-2.828-5.586-4.355-11.008-1.418-5.035-1.538-15.674-.227-20.282 2.847-10.012 6.013-15.56 12.356-21.65 4.367-4.194 5.772-5.205 10.577-7.617 7.15-3.59 10.68-4.36 19.922-4.347 9.153.01 11.87.625 19.42 4.38 11.2 5.57 19.404 15.89 22.664 28.504.965 3.735 1.095 5.456.9 11.9-.224 7.358-.8 10.392-2.867 15.075-.408.925-.742 1.813-.742 1.973 0 .337-3.66 6.66-4.493 7.763-1.848 2.445-8.454 8.654-10.967 10.307-6.606 4.347-17.795 7.634-17.795 5.228 0-.53 1.077-1.08 3.192-1.63 10.25-2.66 18.922-8.685 24.55-17.05 2.327-3.458 4.724-8.82 5.858-13.1 1.386-5.234 1.358-15.178-.058-20.258-4.037-14.48-15.018-25.567-29.384-29.665-8.014-2.286-19.62-1.398-27.27 2.085-6.97 3.174-14.313 9.715-18.293 16.29-2.954 4.882-3.784 6.983-5.188 13.13-2.45 10.732-.13 22.44 6.31 31.857 4.014 5.867 11.03 11.705 17.147 14.268l3.446 1.458c.585.253 2.11.686 3.4.96 2.57.554 3.567 1.26 3.024 2.14-.455.74-2.055.687-5.083-.165zm9.33-28.863c-.494-2.226-1.238-4.7-1.653-5.5s-.756-1.648-.758-1.888-.66-1.3-1.463-2.356c-.82-1.078-1.127-1.81-.7-1.666 1.335.446 4.04 6.1 5.05 10.576.538 2.378.853 4.45.7 4.603s-.682-1.543-1.176-3.77z"/><path d="M199.99 101.076c0 54.376-43.944 98.457-98.15 98.457s-98.15-44.08-98.15-98.457S47.632 2.62 101.84 2.62s98.15 44.08 98.15 98.457z" fill="none" stroke="#f1c899" stroke-width="4.035" paint-order="normal"/><defs ><path id="B" d="M116.338 69.638l-.052-30.095 30.17 30.265-30.17 30.265z"/></defs></svg>