<?xml version="1.0" encoding="utf-8"?>
<svg width="53" height="53" viewBox="0 0 53 53" fill="none" xmlns="http://www.w3.org/2000/svg">
  <path d="M31.5723 26.5C31.5723 29.3014 29.3014 31.5723 26.5 31.5723C23.6986 31.5723 21.4277 29.3014 21.4277 26.5C21.4277 23.6986 23.6987 21.4277 26.5 21.4277C29.3013 21.4277 31.5723 23.6987 31.5723 26.5ZM38.3623 17.5257C38.1185 16.865 37.7295 16.267 37.224 15.7761C36.7333 15.2706 36.1354 14.8817 35.4744 14.6378C34.9382 14.4296 34.1327 14.1817 32.6491 14.1141C31.0442 14.041 30.5631 14.0252 26.5001 14.0252C22.4371 14.0252 21.9556 14.0405 20.3511 14.1137C18.8675 14.1816 18.0616 14.4296 17.5258 14.6378C16.8648 14.8815 16.2669 15.2705 15.7762 15.7761C15.2707 16.2669 14.8817 16.8648 14.6375 17.5257C14.4293 18.0619 14.1814 18.8678 14.1138 20.3514C14.0407 21.9559 14.0249 22.437 14.0249 26.5004L14.1138 32.6494C14.1813 34.133 14.4293 34.9385 14.6375 35.4747C14.8815 36.1356 15.2704 36.7335 15.7758 37.2243C16.2665 37.7298 16.8644 38.1188 17.5254 38.3626C18.0616 38.5713 18.8675 38.8191 20.3511 38.8867C21.9556 38.9599 22.4364 38.9752 26.4997 38.9752L32.6487 38.8867C34.1323 38.8192 34.9382 38.5713 35.4744 38.3627C36.1306 38.1095 36.7266 37.7218 37.224 37.2244C37.7214 36.7271 38.1091 36.1311 38.3623 35.4748C38.5705 34.9386 38.8184 34.1331 38.8864 32.6496C38.9596 31.0446 38.9749 30.5635 38.9749 26.5005L38.8864 20.3515C38.8189 18.8679 38.571 18.062 38.3624 17.5258L38.3623 17.5257ZM26.5 34.3138C22.1843 34.3138 18.6858 30.8157 18.6858 26.5C18.6858 22.1843 22.1843 18.6862 26.5 18.6862C30.8157 18.6862 34.3138 22.1843 34.3138 26.5C34.3138 30.8157 30.8153 34.3138 26.5 34.3138ZM34.6228 20.2034C33.6143 20.2034 32.7966 19.3858 32.7966 18.3772C32.7966 17.3687 33.6142 16.5511 34.6228 16.5511C35.6313 16.5511 36.4489 17.3687 36.4489 18.3772C36.4489 19.3858 35.6313 20.2034 34.6228 20.2034ZM26.5 0C11.8667 0 0 11.8667 0 26.5C0 41.1333 11.8667 53 26.5 53C41.1333 53 53 41.1333 53 26.5C53 11.8667 41.1333 0 26.5 0ZM41.625 32.7736C41.5514 34.3934 41.2938 35.4993 40.9178 36.4674C40.1272 38.5114 38.5114 40.1272 36.4674 40.9178C35.4998 41.2938 34.3935 41.551 32.774 41.625C31.1513 41.699 30.6329 41.7168 26.5004 41.7168C22.368 41.7168 21.8495 41.699 20.2264 41.625C18.6069 41.551 17.5007 41.2938 16.533 40.9178C15.5175 40.5358 14.5976 39.9367 13.8376 39.1624C13.0635 38.4024 12.4646 37.4827 12.0827 36.4674C11.7066 35.4998 11.449 34.3935 11.3754 32.774C11.3006 31.1509 11.2832 30.6326 11.2832 26.5L11.375 20.2264C11.4486 18.6066 11.7058 17.5007 12.0818 16.5326C12.4639 15.5172 13.0631 14.5974 13.8376 13.8376C14.5975 13.0633 15.5172 12.4643 16.5326 12.0822C17.5007 11.7062 18.6065 11.449 20.2264 11.375C21.849 11.301 22.3674 11.2832 26.5 11.2832C30.6326 11.2832 31.151 11.301 32.7736 11.3754C34.3934 11.449 35.4993 11.7062 36.4674 12.0818C37.4829 12.4641 38.4028 13.0632 39.1629 13.8376C39.9369 14.5975 40.5358 15.5173 40.9178 16.5326C41.2942 17.5007 41.5514 18.6065 41.6254 20.2264C41.6994 21.8491 41.7168 22.3676 41.7168 26.5L41.625 32.7736Z" style="fill: rgb(199, 118, 18);"/>
</svg>