<?xml version="1.0" encoding="utf-8"?>
<svg width="53" height="53" viewBox="0 0 53 53" fill="none" xmlns="http://www.w3.org/2000/svg">
  <circle cx="27" cy="26" r="24.009" style="fill: rgb(255, 255, 255);"/>
  <path d="M 28.393 20.821 C 28.393 21.867 27.545 22.714 26.5 22.714 C 25.455 22.714 24.607 21.867 24.607 20.821 C 24.607 19.776 25.455 18.929 26.5 18.929 C 27.545 18.929 28.393 19.776 28.393 20.821 Z M 26.5 13.25 C 21.275 13.256 17.041 17.49 17.036 22.714 C 17.036 28.728 24.239 36.911 26.5 39.327 C 28.76 36.911 35.964 28.722 35.964 22.714 C 35.959 17.49 31.725 13.256 26.5 13.25 Z M 26.5 24.607 C 24.409 24.607 22.714 22.912 22.714 20.821 C 22.714 18.731 24.409 17.036 26.5 17.036 C 28.591 17.036 30.286 18.731 30.286 20.821 C 30.286 22.912 28.591 24.607 26.5 24.607 Z M 26.5 0 C 11.865 0 0 11.864 0 26.5 C 0 41.136 11.865 53 26.5 53 C 41.136 53 53 41.136 53 26.5 C 52.983 11.871 41.129 0.017 26.5 0 Z M 27.169 41.366 C 26.799 41.735 26.201 41.735 25.831 41.366 C 25.395 40.929 15.143 30.587 15.143 22.714 C 15.143 16.442 20.228 11.357 26.5 11.357 C 32.773 11.357 37.857 16.442 37.857 22.714 C 37.857 30.587 27.605 40.929 27.169 41.366 Z" style="fill: rgb(199, 118, 18);"/>
</svg>