<?xml version="1.0" encoding="UTF-8" standalone="no"?>
<svg
   xmlns:dc="http://purl.org/dc/elements/1.1/"
   xmlns:cc="http://creativecommons.org/ns#"
   xmlns:rdf="http://www.w3.org/1999/02/22-rdf-syntax-ns#"
   xmlns:svg="http://www.w3.org/2000/svg"
   xmlns="http://www.w3.org/2000/svg"
   xmlns:sodipodi="http://sodipodi.sourceforge.net/DTD/sodipodi-0.dtd"
   xmlns:inkscape="http://www.inkscape.org/namespaces/inkscape"
   width="512"
   height="512"
   viewBox="0 0 512 512"
   fill="none"
   version="1.1"
   id="svg10"
   sodipodi:docname="Orange Menu.svg"
   inkscape:version="0.92.5 (2060ec1f9f, 2020-04-08)">
  <metadata
     id="metadata16">
    <rdf:RDF>
      <cc:Work
         rdf:about="">
        <dc:format>image/svg+xml</dc:format>
        <dc:type
           rdf:resource="http://purl.org/dc/dcmitype/StillImage" />
        <dc:title></dc:title>
      </cc:Work>
    </rdf:RDF>
  </metadata>
  <defs
     id="defs14" />
  <sodipodi:namedview
     pagecolor="#ffffff"
     bordercolor="#666666"
     borderopacity="1"
     objecttolerance="10"
     gridtolerance="10"
     guidetolerance="10"
     inkscape:pageopacity="0"
     inkscape:pageshadow="2"
     inkscape:window-width="716"
     inkscape:window-height="480"
     id="namedview12"
     showgrid="false"
     inkscape:zoom="0.4609375"
     inkscape:cx="180.0678"
     inkscape:cy="256"
     inkscape:window-x="0"
     inkscape:window-y="0"
     inkscape:window-maximized="0"
     inkscape:current-layer="svg10" />
  <circle
     cx="256"
     cy="256"
     r="231"
     fill="#774F5D"
     id="circle2"
     style="fill:#c77612;fill-opacity:0.98895025" />
  <path
     d="M362.667 149.333H149.333C137.551 149.333 128 158.884 128 170.666C128 182.448 137.551 191.999 149.333 191.999H362.666C374.448 191.999 383.999 182.448 383.999 170.666C384 158.885 374.449 149.333 362.667 149.333Z"
     fill="#FFC562"
     id="path4"
     style="fill:#ffffff;fill-opacity:1" />
  <path
     d="M362.667 234.667H149.333C137.551 234.667 128 244.218 128 256C128 267.782 137.551 277.333 149.333 277.333H362.666C374.448 277.333 383.999 267.782 383.999 256C383.999 244.218 374.449 234.667 362.667 234.667Z"
     fill="#FFC562"
     id="path6"
     style="fill:#ffffff;fill-opacity:1" />
  <path
     d="M362.667 320H149.333C137.551 320 128 329.551 128 341.333C128 353.115 137.551 362.666 149.333 362.666H362.666C374.448 362.666 383.999 353.115 383.999 341.333C384 329.551 374.449 320 362.667 320Z"
     fill="#FFC562"
     id="path8"
     style="fill:#ffffff;fill-opacity:1" />
</svg>
