<?xml version="1.0" encoding="utf-8"?>
<svg width="53" height="53" viewBox="0 0 53 53" fill="none" xmlns="http://www.w3.org/2000/svg">
  <path d="M37.1917 17.0357H15.8083L26.5 26.2001L37.1917 17.0357ZM26.5 28.3929C26.274 28.3929 26.0554 28.3119 25.884 28.1645L14.1964 18.1467V35.9643H38.8036V18.1467L27.116 28.1646C26.9446 28.3121 26.726 28.393 26.5 28.393V28.3929ZM26.5 0C11.8645 0 0 11.8645 0 26.5C0 41.1355 11.8645 53 26.5 53C41.1355 53 53 41.1355 53 26.5C52.9833 11.8715 41.1285 0.0166808 26.5 0ZM40.6964 36.9107C40.6964 37.1617 40.5967 37.4025 40.4192 37.5799C40.2417 37.7574 40.001 37.8571 39.75 37.8571H13.25C12.999 37.8571 12.7583 37.7574 12.5808 37.5799C12.4033 37.4025 12.3036 37.1617 12.3036 36.9107V16.0893C12.3036 15.8383 12.4033 15.5975 12.5808 15.4201C12.7583 15.2426 12.999 15.1429 13.25 15.1429H39.75C40.001 15.1429 40.2417 15.2426 40.4192 15.4201C40.5967 15.5975 40.6964 15.8383 40.6964 16.0893V36.9107Z" style="fill: rgb(199, 118, 18);"/>
</svg>