<?xml version="1.0" encoding="utf-8"?>
<svg width="512" height="512" viewBox="0 0 512 512" fill="none" xmlns="http://www.w3.org/2000/svg">
  <circle cx="256" cy="256" r="231" style="fill: rgb(199, 118, 18);"/>
  <path d="M362.667 149.333H149.333C137.551 149.333 128 158.884 128 170.666C128 182.448 137.551 191.999 149.333 191.999H362.666C374.448 191.999 383.999 182.448 383.999 170.666C384 158.885 374.449 149.333 362.667 149.333Z" style="fill: rgb(255, 255, 255);"/>
  <path d="M362.667 234.667H149.333C137.551 234.667 128 244.218 128 256C128 267.782 137.551 277.333 149.333 277.333H362.666C374.448 277.333 383.999 267.782 383.999 256C383.999 244.218 374.449 234.667 362.667 234.667Z" style="fill: rgb(255, 255, 255);"/>
  <path d="M362.667 320H149.333C137.551 320 128 329.551 128 341.333C128 353.115 137.551 362.666 149.333 362.666H362.666C374.448 362.666 383.999 353.115 383.999 341.333C384 329.551 374.449 320 362.667 320Z" style="fill: rgb(255, 255, 255);"/>
</svg>