<?xml version="1.0" encoding="utf-8"?>
<svg width="53" height="53" viewBox="0 0 53 53" fill="none" xmlns="http://www.w3.org/2000/svg">
  <circle cx="27" cy="26" r="24.36" style="fill: rgb(255, 255, 255);"/>
  <path d="M 37.192 17.036 L 15.808 17.036 L 26.5 26.2 L 37.192 17.036 Z M 26.5 28.393 C 26.274 28.393 26.055 28.312 25.884 28.164 L 14.196 18.147 L 14.196 35.964 L 38.804 35.964 L 38.804 18.147 L 27.116 28.165 C 26.945 28.312 26.726 28.393 26.5 28.393 Z M 26.5 0 C 11.865 0 0 11.864 0 26.5 C 0 41.136 11.865 53 26.5 53 C 41.136 53 53 41.136 53 26.5 C 52.983 11.871 41.129 0.017 26.5 0 Z M 40.696 36.911 C 40.696 37.162 40.597 37.403 40.419 37.58 C 40.242 37.757 40.001 37.857 39.75 37.857 L 13.25 37.857 C 12.999 37.857 12.758 37.757 12.581 37.58 C 12.403 37.403 12.304 37.162 12.304 36.911 L 12.304 16.089 C 12.304 15.838 12.403 15.597 12.581 15.42 C 12.758 15.243 12.999 15.143 13.25 15.143 L 39.75 15.143 C 40.001 15.143 40.242 15.243 40.419 15.42 C 40.597 15.597 40.696 15.838 40.696 16.089 L 40.696 36.911 Z" style="fill: rgb(199, 118, 18);"/>
</svg>