<?xml version="1.0" encoding="utf-8"?>
<svg width="53" height="53" viewBox="0 0 53 53" fill="none" xmlns="http://www.w3.org/2000/svg">
  <path d="M31.2636 30.5288L29.2372 34.4093C29.0154 34.8345 28.5112 35.0267 28.0624 34.8571C25.8006 34.0009 23.7467 32.6737 22.0369 30.9634C20.327 29.2531 19.0003 27.1988 18.1448 24.9367C17.9752 24.488 18.1674 23.9838 18.5926 23.762L22.4731 21.7365L21.2493 14.8033C20.5292 14.3981 19.7155 14.1884 18.8891 14.1953C18.0628 14.2022 17.2527 14.4254 16.5394 14.8426C15.8261 15.2598 15.2345 15.8565 14.8234 16.5734C14.4124 17.2902 14.1962 18.1022 14.1964 18.9286C14.2089 29.8998 23.1002 38.7911 34.0714 38.8036C34.8975 38.8036 35.7092 38.5874 36.4258 38.1764C37.1424 37.7655 37.7389 37.1741 38.1561 36.461C39.0049 35.0099 39.0208 33.2179 38.1968 31.7524L31.2636 30.5288ZM26.5 0C11.8645 0 0 11.8645 0 26.5C0 41.1355 11.8645 53 26.5 53C41.1355 53 53 41.1355 53 26.5C52.9833 11.8715 41.1285 0.0166808 26.5 0ZM34.0714 40.6964C22.0549 40.6831 12.3169 30.9451 12.3036 18.9286C12.3038 17.7261 12.6312 16.5464 13.2508 15.5159C13.8703 14.4854 14.7586 13.6428 15.8204 13.0786C17.9845 11.9293 20.6061 12.0679 22.6367 13.4395C22.7419 13.5105 22.8317 13.6019 22.9008 13.7084C22.9699 13.8149 23.0168 13.9342 23.0387 14.0592L24.4583 22.0914C24.5299 22.4981 24.3303 22.9038 23.9643 23.0946L20.2354 25.0425C21.7604 28.49 24.5146 31.2456 27.9612 32.772L29.9071 29.0384C30.098 28.6724 30.5037 28.4728 30.9104 28.5444L38.9434 29.964C39.0682 29.9859 39.1873 30.0327 39.2936 30.1016C39.3999 30.1706 39.4912 30.2602 39.5621 30.3652C40.2347 31.3618 40.6234 32.5225 40.6867 33.7231C40.7499 34.9237 40.4852 36.1189 39.9209 37.1806C39.3567 38.2422 38.5142 39.1303 37.4837 39.7497C36.4533 40.369 35.2737 40.6963 34.0714 40.6964Z" style="fill: rgb(199, 118, 18);"/>
</svg>