<?xml version="1.0" encoding="utf-8"?>
<svg width="53" height="53" viewBox="0 0 53 53" fill="none" xmlns="http://www.w3.org/2000/svg">
  <path d="M28.3929 20.8214C28.3929 21.8668 27.5453 22.7143 26.5 22.7143C25.4547 22.7143 24.6071 21.8668 24.6071 20.8214C24.6071 19.7761 25.4547 18.9286 26.5 18.9286C27.5453 18.9286 28.3929 19.7761 28.3929 20.8214ZM26.5 13.25C21.2752 13.2556 17.0413 17.4895 17.0357 22.7143C17.0357 28.7279 24.2389 36.9107 26.5 39.3272C28.7602 36.9107 35.9643 28.7223 35.9643 22.7143C35.9587 17.4895 31.7248 13.2556 26.5 13.25ZM26.5 24.6071C24.4093 24.6071 22.7143 22.9121 22.7143 20.8214C22.7143 18.7308 24.4093 17.0357 26.5 17.0357C28.5907 17.0357 30.2857 18.7308 30.2857 20.8214C30.2857 22.9121 28.5907 24.6071 26.5 24.6071ZM26.5 0C11.8645 0 0 11.8645 0 26.5C0 41.1355 11.8645 53 26.5 53C41.1355 53 53 41.1355 53 26.5C52.9833 11.8715 41.1285 0.0166808 26.5 0ZM27.1691 41.3656C26.7994 41.7348 26.2006 41.7348 25.8309 41.3656C25.3946 40.9294 15.1429 30.5866 15.1429 22.7143C15.1429 16.4418 20.2275 11.3571 26.5 11.3571C32.7725 11.3571 37.8571 16.4418 37.8571 22.7143C37.8571 30.5866 27.6054 40.9294 27.1691 41.3656Z" style="fill: rgb(199, 118, 18);"/>
</svg>